<svg xmlns="http://www.w3.org/2000/svg" viewBox="0 0 128 128" id="radish"><path fill="#d32e97" d="M65.8 71.2c-.6 0-1.2-.1-1.8-.1-.6 0-1.2 0-1.8.1-8.4.8-14.8 7.7-14.8 15.9 0 7.7 4.9 11.3 10.2 15 2.3 1.6 4.6 3.3 6.5 5.4 1.8-2.1 4.2-3.7 6.5-5.4 5.2-3.7 10.2-7.3 10.2-15-.1-8.2-6.5-15-15-15.9z"></path><path fill="#00bf4c" d="M95.2 38c0-.6.3-1.2.7-1.7.9-.9 1.4-2.1 1.4-3.3 0-1.3-.5-2.4-1.4-3.3-1.8-1.8-4.9-1.8-6.7 0-.9.9-2.4.9-3.4 0-1.8-1.8-4.8-1.8-6.7 0-.8.8-1.3 1.9-1.4 3.1-.1 1.2-1 2.2-2.3 2.3-1.2 0-2.2.5-3 1.3-.9.9-1.4 2.1-1.4 3.4 0 1.3.5 2.4 1.4 3.3.4.4.7 1.1.7 1.7 0 .6-.2 1.2-.7 1.7-.9.9-1.4 2.1-1.4 3.4 0 .6.1 1.2.4 1.8 3.6-4.6 8.4-9.9 14.8-15.5 1-.9 2.5-.8 3.4.2.9 1 .8 2.5-.2 3.4-6.1 5.1-10.7 10.2-14.1 14.6 1.4.2 2.9-.3 3.9-1.3.4-.5 1.1-.7 1.7-.7.6 0 1.2.3 1.7.7 1.8 1.8 4.9 1.8 6.7 0 .8-.8 1.3-1.9 1.4-3 .1-1.2 1-2.2 2.2-2.3 1.2-.1 2.3-.5 3.1-1.4 1.9-1.9 1.9-4.8 0-6.7-.5-.4-.8-1-.8-1.7z"></path><path fill="#0a3960" d="M102.1 33c0-2.5-1-4.9-2.8-6.7-3.1-3.1-8.1-3.6-11.7-1.3-3.7-2.3-8.5-1.8-11.7 1.3-1.2 1.2-2.1 2.7-2.5 4.3-1.6.4-3.1 1.3-4.2 2.5-1.8 1.8-2.8 4.2-2.8 6.7 0 1.8.5 3.5 1.4 5-.9 1.5-1.4 3.2-1.4 5 0 2.2.7 4.2 2.1 5.9-1.5 2.2-2.7 4.2-3.7 5.9-1.2-3.9-3.2-9.1-6.5-15 1.3-1.4 2-3.1 2.3-5 .2-1.7-.1-3.4-.8-4.9 1.1-1.3 1.7-2.9 1.9-4.6.3-2.4-.5-4.8-2.1-6.7-1-1.2-2.4-2.2-3.9-2.8-.3-1.5-.9-3-2-4.3-2.8-3.3-7.6-4.2-11.4-2.4-3.4-2.5-8.2-2.6-11.7.1-2 1.5-3.2 3.7-3.5 6.2-.2 1.7.1 3.3.9 4.8-1.1 1.3-1.7 3-1.9 4.7-.2 2.4.5 4.8 2.1 6.6 1 1.3 2.4 2.2 3.9 2.8.3 1.6.9 3 2 4.3 2.8 3.3 7.6 4.2 11.4 2.4 1.7 1.3 3.7 1.9 5.8 1.9 1 0 2.1-.2 3.1-.5 4.3 7.6 6.2 14 7 17.4-10.6 1.3-18.6 10.1-18.6 20.5 0 10.2 6.7 15 12.2 18.9 3 2.1 5.8 4.2 7.2 6.7.4.8 1.2 1.3 2.1 1.3.9 0 1.7-.5 2.1-1.3 1.3-2.6 4.2-4.6 7.2-6.7 5.4-3.9 12.2-8.7 12.2-18.9s-7.6-18.8-17.9-20.4c.9-1.9 2.5-4.7 4.8-8.2 2.8 1.1 6 .9 8.6-.7 1.5.9 3.2 1.4 5 1.4 2.5 0 4.9-1 6.7-2.8 1.2-1.2 2.1-2.6 2.5-4.2 1.6-.4 3.1-1.3 4.2-2.4 3.2-3.2 3.6-8.1 1.3-11.7.6-1.6 1.1-3.3 1.1-5.1zm-6.2 13.4c-.8.8-1.9 1.3-3.1 1.4-1.2.1-2.2 1.1-2.2 2.3 0 1.1-.5 2.2-1.4 3-1.8 1.8-4.9 1.8-6.7 0-.4-.5-1.1-.7-1.7-.7-.6 0-1.2.3-1.7.7-1.1 1.1-2.5 1.5-3.9 1.3 3.4-4.4 8-9.5 14.1-14.8 1-.9 1.1-2.4.2-3.4-.9-1-2.4-1.1-3.4-.2-6.4 5.6-11.2 10.9-14.8 15.5-.2-.6-.3-1.1-.4-1.8 0-1.3.5-2.4 1.4-3.4.4-.4.7-1.1.7-1.7 0-.6-.3-1.2-.7-1.7-.9-.9-1.4-2.1-1.4-3.3 0-1.3.5-2.4 1.4-3.4.8-.8 1.9-1.3 3-1.3 1.2-.1 2.2-1 2.3-2.3 0-1.2.5-2.2 1.4-3.1 1.8-1.8 4.8-1.8 6.7 0 .9.9 2.4.9 3.4 0 1.8-1.8 4.9-1.8 6.7 0 .9.9 1.4 2.1 1.4 3.3 0 1.3-.5 2.4-1.4 3.3-.4.4-.7 1.1-.7 1.7s.2 1.2.7 1.7c2 2.1 2 5 .1 6.9zm-25.4 55.7c-2.3 1.6-4.6 3.3-6.5 5.4-1.8-2.1-4.2-3.7-6.5-5.4-5.2-3.7-10.2-7.3-10.2-15 0-8.2 6.4-15 14.8-15.9.6 0 1.2-.1 1.8-.1.6 0 1.2 0 1.8.1 8.5.8 14.9 7.7 14.9 15.9.1 7.7-4.9 11.3-10.1 15zM47.4 43.3c-.5-.5-1.1-.8-1.8-.8-.5 0-1 .2-1.5.5-2 1.6-5 1.3-6.6-.7-.7-.8-1-1.8-1-2.9.1-1.2-.8-2.3-2-2.5-1.1-.2-2.1-.7-2.9-1.6-.7-.9-1.1-2-1-3.1.1-1.2.7-2.2 1.7-3 .5-.4.8-1 .9-1.6.1-.6-.1-1.3-.5-1.8-.8-.9-1.1-2-1-3.1.1-1.1.7-2.2 1.7-2.9 2-1.6 5-1.3 6.6.7.8 1 2.3 1.1 3.3.4 2-1.6 5-1.3 6.6.7.7.8 1.1 1.9 1 2.9-.1 1.2.8 2.3 2 2.5 1.1.2 2.2.7 2.9 1.6.8.9 1.1 2 1 3.1-.1 1.1-.7 2.2-1.7 2.9-.5.4-.8 1-.9 1.6s.1 1.3.5 1.8c.8.9 1.1 2 1 3.2 0 .4-.2.7-.3 1.1-3.4-5.1-7.9-10.4-13.7-15.6-1-.9-2.5-.8-3.4.2-.9 1-.8 2.5.2 3.4 5.5 4.9 9.7 10 13 14.8-1.5-.1-3-.6-4.1-1.8z"></path><path fill="#00bf4c" d="M38.6 30.1c-1-.9-1.1-2.4-.2-3.4.9-1 2.4-1.1 3.4-.2 5.8 5.2 10.3 10.5 13.7 15.6.1-.3.3-.7.3-1.1.1-1.1-.2-2.2-1-3.2-.4-.5-.6-1.1-.5-1.8s.4-1.2.9-1.6c1-.7 1.5-1.8 1.7-2.9.1-1.1-.2-2.2-1-3.1-.7-.9-1.8-1.4-2.9-1.6-1.2-.2-2.1-1.3-2-2.5.1-1-.3-2-1-2.9-1.6-1.9-4.6-2.2-6.6-.7-1 .8-2.5.6-3.3-.4-1.6-1.9-4.6-2.2-6.6-.7-1 .7-1.6 1.8-1.7 2.9-.1 1.1.2 2.2 1 3.1.4.5.6 1.1.5 1.8-.1.6-.4 1.2-.9 1.6-1 .8-1.6 1.8-1.7 3-.1 1.1.2 2.2 1 3.1.7.9 1.8 1.4 2.9 1.6 1.2.2 2.1 1.3 2 2.5-.1 1.1.3 2.1 1 2.9 1.6 1.9 4.6 2.2 6.6.7.4-.3.9-.5 1.5-.5.7 0 1.3.3 1.8.8 1 1.2 2.6 1.8 4.1 1.6-3.2-4.6-7.5-9.7-13-14.6z"></path></svg>